<?xml version="1.0" encoding="utf-8"?>
<!-- Generator: Adobe Illustrator 19.0.0, SVG Export Plug-In . SVG Version: 6.00 Build 0)  -->
<svg version="1.1" id="Layer_1" xmlns="http://www.w3.org/2000/svg" xmlns:xlink="http://www.w3.org/1999/xlink" x="0px" y="0px"
	 viewBox="0 0 500 500" style="enable-background:new 0 0 500 500;" xml:space="preserve">
<style type="text/css">
	.st0{fill:#4D4D4D;}
	.st1{fill:url(#XMLID_61_);}
	.st2{fill:url(#XMLID_62_);}
	.st3{fill:url(#XMLID_66_);}
	.st4{fill:url(#XMLID_67_);}
	.st5{fill:url(#XMLID_68_);}
	.st6{fill:url(#XMLID_69_);}
	.st7{fill:url(#XMLID_70_);}
	.st8{fill:url(#XMLID_71_);}
	.st9{fill:url(#XMLID_72_);}
	.st10{fill:url(#XMLID_73_);}
	.st11{fill:url(#XMLID_74_);}
	.st12{fill:url(#XMLID_75_);}
	.st13{fill:url(#XMLID_77_);}
	.st14{fill:url(#XMLID_78_);}
	.st15{fill:url(#XMLID_79_);}
	.st16{fill:url(#XMLID_83_);}
	.st17{fill:url(#XMLID_84_);}
	.st18{fill:url(#XMLID_85_);}
	.st19{fill:url(#XMLID_86_);}
	.st20{fill:url(#XMLID_91_);}
	.st21{fill:url(#XMLID_92_);}
	.st22{fill:url(#XMLID_93_);}
	.st23{fill:url(#XMLID_94_);}
	.st24{fill:url(#XMLID_95_);}
	.st25{fill:url(#XMLID_96_);}
	.st26{fill:url(#XMLID_97_);}
	.st27{fill:url(#XMLID_98_);}
	.st28{fill:url(#XMLID_99_);}
	.st29{fill:url(#XMLID_100_);}
	.st30{fill:url(#XMLID_101_);}
</style>
<g id="XMLID_1_">
	<path id="XMLID_3_" class="st0" d="M426.6,270c0,4.4-7.8,7.9-17.5,7.9h-319c-9.7,0-17.5-3.5-17.5-7.9v-43.8c0-4.4,7.8-7.9,17.5-7.9
		h319c9.7,0,17.5,3.5,17.5,7.9V270z"/>
	<path id="XMLID_6_" class="st0" d="M425,215.2H75.6c-4.2,0-7.6,3.5-7.6,7.9v54.1c0,4.4,3.4,7.9,7.6,7.9h349.4
		c4.2,0,7.6-3.5,7.6-7.9v-54.1C432.6,218.7,429.1,215.2,425,215.2z M422.4,266.1c0,4.4-3.4,7.9-7.6,7.9H85.8c-4.2,0-7.6-3.5-7.6-7.9
		v-32.5c0-4.4,3.4-7.9,7.6-7.9h329.1c4.2,0,7.6,3.5,7.6,7.9V266.1z"/>
	
		<linearGradient id="XMLID_61_" gradientUnits="userSpaceOnUse" x1="1.9769" y1="0.8521" x2="2.5091" y2="0.8521" gradientTransform="matrix(0 107.4 -107.4 0 339.8621 5.5878)">
		<stop  offset="0" style="stop-color:#333333"/>
		<stop  offset="1" style="stop-color:#000000"/>
	</linearGradient>
	<path id="XMLID_7_" class="st1" d="M424.6,267.5c0,4.2-7.8,7.6-17.5,7.6H89.5c-9.6,0-17.5-3.4-17.5-7.6v-42c0-4.2,7.8-7.6,17.5-7.6
		h317.6c9.6,0,17.5,3.4,17.5,7.6L424.6,267.5L424.6,267.5z"/>
	
		<linearGradient id="XMLID_62_" gradientUnits="userSpaceOnUse" x1="2.168" y1="0.9206" x2="2.7002" y2="0.9206" gradientTransform="matrix(0 100 -100 0 341.05 -4)">
		<stop  offset="0" style="stop-color:#CCCCCC"/>
		<stop  offset="1" style="stop-color:#666666"/>
	</linearGradient>
	<path id="XMLID_10_" class="st2" d="M422.9,214.9H75.1c-4.2,0-7.6,3.4-7.6,7.6v52c0,4.2,3.4,7.6,7.6,7.6h347.9
		c4.2,0,7.6-3.4,7.6-7.6v-52C430.4,218.3,427.1,214.9,422.9,214.9z M420.3,263.8c0,4.2-3.4,7.6-7.6,7.6H85.2c-4.2,0-7.6-3.4-7.6-7.6
		v-31.2c0-4.2,3.4-7.6,7.6-7.6h327.6c4.2,0,7.6,3.4,7.6,7.6L420.3,263.8L420.3,263.8z"/>
	
		<linearGradient id="XMLID_66_" gradientUnits="userSpaceOnUse" x1="6.2843" y1="-1.2319" x2="6.8165" y2="-1.2319" gradientTransform="matrix(0 31 -31 0 62.65 43)">
		<stop  offset="0" style="stop-color:#999999"/>
		<stop  offset="0.3956" style="stop-color:#CCCCCC"/>
		<stop  offset="1" style="stop-color:#666666"/>
	</linearGradient>
	<path id="XMLID_13_" class="st3" d="M112.7,232.9L112.7,232.9l-28.1-0.1v15.6h28.1v-0.1c2.4-0.3,4.4-3.7,4.4-7.8
		C117.1,236.6,115.1,233.2,112.7,232.9z M108.5,244.8L108.5,244.8H91.4v-6.4h17.1c1.5,0.1,2.7,1.5,2.7,3.2S110,244.7,108.5,244.8z"
		/>
	
		<linearGradient id="XMLID_67_" gradientUnits="userSpaceOnUse" x1="6.2843" y1="-1.2319" x2="6.8165" y2="-1.2319" gradientTransform="matrix(0 31 -31 0 62.65 43)">
		<stop  offset="0" style="stop-color:#999999"/>
		<stop  offset="0.3956" style="stop-color:#CCCCCC"/>
		<stop  offset="1" style="stop-color:#666666"/>
	</linearGradient>
	<path id="XMLID_16_" class="st4" d="M112.7,248.4L112.7,248.4l-28.1-0.1v15.6h28.1v-0.1c2.4-0.3,4.4-3.7,4.4-7.8
		C117.1,252,115.1,248.7,112.7,248.4z M108.5,257L108.5,257H91.4v-6.4h17.1c1.5,0.1,2.7,1.5,2.7,3.2
		C111.2,255.5,110,256.9,108.5,257z"/>
	
		<linearGradient id="XMLID_68_" gradientUnits="userSpaceOnUse" x1="6.2843" y1="1.0161" x2="6.8165" y2="1.0161" gradientTransform="matrix(0 31 -31 0 211.6 43)">
		<stop  offset="0" style="stop-color:#999999"/>
		<stop  offset="0.3956" style="stop-color:#CCCCCC"/>
		<stop  offset="1" style="stop-color:#666666"/>
	</linearGradient>
	<polygon id="XMLID_17_" class="st5" points="175.3,263 169,263 184.9,233 191.2,233 	"/>
	
		<linearGradient id="XMLID_69_" gradientUnits="userSpaceOnUse" x1="6.2843" y1="1.4937" x2="6.8165" y2="1.4937" gradientTransform="matrix(0 31 -31 0 243.25 43)">
		<stop  offset="0" style="stop-color:#999999"/>
		<stop  offset="0.3956" style="stop-color:#CCCCCC"/>
		<stop  offset="1" style="stop-color:#666666"/>
	</linearGradient>
	<polygon id="XMLID_18_" class="st6" points="201.8,263 208,263 192.1,233 185.8,233 	"/>
	
		<linearGradient id="XMLID_70_" gradientUnits="userSpaceOnUse" x1="6.2839" y1="1.2692" x2="6.816" y2="1.2692" gradientTransform="matrix(0 31.0002 -31.0002 0 228.387 43.0129)">
		<stop  offset="0" style="stop-color:#999999"/>
		<stop  offset="0.3956" style="stop-color:#CCCCCC"/>
		<stop  offset="1" style="stop-color:#666666"/>
	</linearGradient>
	<rect id="XMLID_19_" x="178.2" y="251.1" class="st7" width="21.6" height="5.5"/>
	
		<linearGradient id="XMLID_71_" gradientUnits="userSpaceOnUse" x1="3.5585" y1="1.3948" x2="4.0906" y2="1.3948" gradientTransform="matrix(0 54.9909 -54.9909 0 308.2351 41.1241)">
		<stop  offset="0" style="stop-color:#F19300"/>
		<stop  offset="0.3956" style="stop-color:#FFEC00"/>
		<stop  offset="1" style="stop-color:#F19300"/>
	</linearGradient>
	<polygon id="XMLID_20_" class="st8" points="221.8,263.1 213,263.1 241.2,232.6 250.1,232.6 	"/>
	
		<linearGradient id="XMLID_72_" gradientUnits="userSpaceOnUse" x1="3.6166" y1="1.4127" x2="4.1487" y2="1.4127" gradientTransform="matrix(0 53.9998 -53.9998 0 307.313 41.987)">
		<stop  offset="0" style="stop-color:#F19300"/>
		<stop  offset="0.3956" style="stop-color:#FFEC00"/>
		<stop  offset="1" style="stop-color:#F19300"/>
	</linearGradient>
	<rect id="XMLID_21_" x="217.5" y="232.6" class="st9" width="27.1" height="5.8"/>
	
		<linearGradient id="XMLID_73_" gradientUnits="userSpaceOnUse" x1="3.6166" y1="1.44" x2="4.1487" y2="1.44" gradientTransform="matrix(0 53.9998 -53.9998 0 310.463 41.9872)">
		<stop  offset="0" style="stop-color:#F19300"/>
		<stop  offset="0.3956" style="stop-color:#FFEC00"/>
		<stop  offset="1" style="stop-color:#F19300"/>
	</linearGradient>
	<rect id="XMLID_22_" x="218.5" y="257.3" class="st10" width="28.5" height="5.8"/>
	
		<linearGradient id="XMLID_74_" gradientUnits="userSpaceOnUse" x1="3.5562" y1="2.0092" x2="4.0883" y2="2.0092" gradientTransform="matrix(0 55.027 -55.027 0 380.6231 41.1038)">
		<stop  offset="0" style="stop-color:#F19300"/>
		<stop  offset="0.3956" style="stop-color:#FFEC00"/>
		<stop  offset="1" style="stop-color:#F19300"/>
	</linearGradient>
	<polygon id="XMLID_23_" class="st11" points="260.4,263.1 251.6,263.1 279.7,232.6 288.6,232.6 	"/>
	
		<linearGradient id="XMLID_75_" gradientUnits="userSpaceOnUse" x1="3.6166" y1="2.0408" x2="4.1487" y2="2.0408" gradientTransform="matrix(0 53.9998 -53.9998 0 379.813 41.987)">
		<stop  offset="0" style="stop-color:#F19300"/>
		<stop  offset="0.3956" style="stop-color:#FFEC00"/>
		<stop  offset="1" style="stop-color:#F19300"/>
	</linearGradient>
	<rect id="XMLID_24_" x="256" y="232.6" class="st12" width="27.1" height="5.8"/>
	
		<linearGradient id="XMLID_77_" gradientUnits="userSpaceOnUse" x1="3.6166" y1="2.0681" x2="4.1487" y2="2.0681" gradientTransform="matrix(0 53.9998 -53.9998 0 382.963 41.9872)">
		<stop  offset="0" style="stop-color:#F19300"/>
		<stop  offset="0.3956" style="stop-color:#FFEC00"/>
		<stop  offset="1" style="stop-color:#F19300"/>
	</linearGradient>
	<rect id="XMLID_25_" x="257.1" y="257.3" class="st13" width="28.5" height="5.8"/>
	
		<linearGradient id="XMLID_78_" gradientUnits="userSpaceOnUse" x1="6.2839" y1="4.732" x2="6.816" y2="4.732" gradientTransform="matrix(0 31.0002 -31.0002 0 457.837 43.013)">
		<stop  offset="0" style="stop-color:#999999"/>
		<stop  offset="0.3956" style="stop-color:#CCCCCC"/>
		<stop  offset="1" style="stop-color:#666666"/>
	</linearGradient>
	<rect id="XMLID_26_" x="296" y="233.2" class="st14" width="30.4" height="5.5"/>
	
		<linearGradient id="XMLID_79_" gradientUnits="userSpaceOnUse" x1="6.2968" y1="4.3801" x2="6.829" y2="4.3801" gradientTransform="matrix(0 31 -31 0 434.5 42.1717)">
		<stop  offset="0" style="stop-color:#999999"/>
		<stop  offset="0.3956" style="stop-color:#CCCCCC"/>
		<stop  offset="1" style="stop-color:#666666"/>
	</linearGradient>
	<rect id="XMLID_27_" x="296" y="233.1" class="st15" width="5.5" height="29.9"/>
	
		<linearGradient id="XMLID_83_" gradientUnits="userSpaceOnUse" x1="6.2839" y1="4.732" x2="6.816" y2="4.732" gradientTransform="matrix(0 31.0002 -31.0002 0 457.837 43.0128)">
		<stop  offset="0" style="stop-color:#999999"/>
		<stop  offset="0.3956" style="stop-color:#CCCCCC"/>
		<stop  offset="1" style="stop-color:#666666"/>
	</linearGradient>
	<rect id="XMLID_28_" x="296" y="257.9" class="st16" width="30.4" height="5.5"/>
	
		<linearGradient id="XMLID_84_" gradientUnits="userSpaceOnUse" x1="6.2839" y1="4.5924" x2="6.816" y2="4.5924" gradientTransform="matrix(0 31.0002 -31.0002 0 448.587 43.0129)">
		<stop  offset="0" style="stop-color:#999999"/>
		<stop  offset="0.3956" style="stop-color:#CCCCCC"/>
		<stop  offset="1" style="stop-color:#666666"/>
	</linearGradient>
	<rect id="XMLID_29_" x="296" y="244.5" class="st17" width="20.5" height="5.5"/>
	
		<linearGradient id="XMLID_85_" gradientUnits="userSpaceOnUse" x1="6.2843" y1="-0.4018" x2="6.8165" y2="-0.4018" gradientTransform="matrix(0 31 -31 0 117.65 43)">
		<stop  offset="0" style="stop-color:#999999"/>
		<stop  offset="0.3956" style="stop-color:#CCCCCC"/>
		<stop  offset="1" style="stop-color:#666666"/>
	</linearGradient>
	<rect id="XMLID_30_" x="126.8" y="246.3" class="st18" width="6.7" height="17.1"/>
	
		<linearGradient id="XMLID_86_" gradientUnits="userSpaceOnUse" x1="6.2845" y1="0.1296" x2="6.8167" y2="0.1296" gradientTransform="matrix(0 30.9999 -30.9999 0 152.8565 42.9935)">
		<stop  offset="0" style="stop-color:#999999"/>
		<stop  offset="0.3956" style="stop-color:#CCCCCC"/>
		<stop  offset="1" style="stop-color:#666666"/>
	</linearGradient>
	<polygon id="XMLID_31_" class="st19" points="162.2,263.5 153.3,263.5 135.5,248.6 144.3,248.6 	"/>
	
		<linearGradient id="XMLID_91_" gradientUnits="userSpaceOnUse" x1="6.2843" y1="-2.076601e-002" x2="6.8165" y2="-2.076601e-002" gradientTransform="matrix(0 31 -31 0 142.9 43)">
		<stop  offset="0" style="stop-color:#999999"/>
		<stop  offset="0.3956" style="stop-color:#CCCCCC"/>
		<stop  offset="1" style="stop-color:#666666"/>
	</linearGradient>
	<path id="XMLID_34_" class="st20" d="M155.8,232.9L155.8,232.9l-29-0.1v17.1h29v-0.1c2.6-0.3,4.5-4,4.5-8.5
		C160.3,236.9,158.3,233.2,155.8,232.9z M149.9,245.6L149.9,245.6h-17.1v-6.4h17.1c1.5,0.1,2.7,1.5,2.7,3.2
		C152.5,244.1,151.4,245.5,149.9,245.6z"/>
	
		<linearGradient id="XMLID_92_" gradientUnits="userSpaceOnUse" x1="6.2843" y1="5.5444" x2="6.8165" y2="5.5444" gradientTransform="matrix(0 31 -31 0 511.65 43)">
		<stop  offset="0" style="stop-color:#999999"/>
		<stop  offset="0.3956" style="stop-color:#CCCCCC"/>
		<stop  offset="1" style="stop-color:#666666"/>
	</linearGradient>
	<rect id="XMLID_35_" x="336.4" y="246.3" class="st21" width="6.7" height="17.1"/>
	
		<linearGradient id="XMLID_93_" gradientUnits="userSpaceOnUse" x1="6.2845" y1="6.0759" x2="6.8167" y2="6.0759" gradientTransform="matrix(0 30.9999 -30.9999 0 546.8565 42.9935)">
		<stop  offset="0" style="stop-color:#999999"/>
		<stop  offset="0.3956" style="stop-color:#CCCCCC"/>
		<stop  offset="1" style="stop-color:#666666"/>
	</linearGradient>
	<polygon id="XMLID_36_" class="st22" points="371.9,263.5 363,263.5 345.1,248.6 354,248.6 	"/>
	
		<linearGradient id="XMLID_94_" gradientUnits="userSpaceOnUse" x1="6.2843" y1="5.9255" x2="6.8165" y2="5.9255" gradientTransform="matrix(0 31 -31 0 536.9 43)">
		<stop  offset="0" style="stop-color:#999999"/>
		<stop  offset="0.3956" style="stop-color:#CCCCCC"/>
		<stop  offset="1" style="stop-color:#666666"/>
	</linearGradient>
	<path id="XMLID_39_" class="st23" d="M365.4,232.9L365.4,232.9l-29-0.1v17.1h29v-0.1c2.6-0.3,4.5-4,4.5-8.5
		C370,236.9,368,233.2,365.4,232.9z M359.5,245.6L359.5,245.6h-17.1v-6.4h17.1c1.5,0.1,2.7,1.5,2.7,3.2
		C362.2,244.1,361,245.5,359.5,245.6z"/>
	
		<linearGradient id="XMLID_95_" gradientUnits="userSpaceOnUse" x1="6.2845" y1="7.1603" x2="6.8167" y2="7.1603" gradientTransform="matrix(0 30.9999 -30.9999 0 618.7065 42.9935)">
		<stop  offset="0" style="stop-color:#999999"/>
		<stop  offset="0.3956" style="stop-color:#CCCCCC"/>
		<stop  offset="1" style="stop-color:#666666"/>
	</linearGradient>
	<rect id="XMLID_40_" x="387.2" y="232.8" class="st24" width="19.1" height="5.7"/>
	
		<linearGradient id="XMLID_96_" gradientUnits="userSpaceOnUse" x1="6.2843" y1="7.16" x2="6.8165" y2="7.16" gradientTransform="matrix(0 31 -31 0 618.6999 43)">
		<stop  offset="0" style="stop-color:#999999"/>
		<stop  offset="0.3956" style="stop-color:#CCCCCC"/>
		<stop  offset="1" style="stop-color:#666666"/>
	</linearGradient>
	<rect id="XMLID_41_" x="387.2" y="245" class="st25" width="19.1" height="5.7"/>
	
		<linearGradient id="XMLID_97_" gradientUnits="userSpaceOnUse" x1="6.2845" y1="7.1271" x2="6.8167" y2="7.1271" gradientTransform="matrix(0 30.9999 -30.9999 0 616.5065 42.9937)">
		<stop  offset="0" style="stop-color:#999999"/>
		<stop  offset="0.3956" style="stop-color:#CCCCCC"/>
		<stop  offset="1" style="stop-color:#666666"/>
	</linearGradient>
	<rect id="XMLID_42_" x="384.9" y="257.4" class="st26" width="21.4" height="5.7"/>
	
		<linearGradient id="XMLID_98_" gradientUnits="userSpaceOnUse" x1="1.5198" y1="4.5085" x2="2.0519" y2="4.5085" gradientTransform="matrix(0 31 -31 0 547.65 358.7)">
		<stop  offset="0" style="stop-color:#999999"/>
		<stop  offset="0.3956" style="stop-color:#CCCCCC"/>
		<stop  offset="1" style="stop-color:#666666"/>
	</linearGradient>
	<path id="XMLID_43_" class="st27" d="M406.7,245c-1.2,0-2.3,0.4-3.2,1c1.4,1,2.4,2.7,2.4,4.6v7c0,1.9-1,3.6-2.4,4.6
		c0.9,0.6,2,1,3.2,1c3.1,0,5.6-2.5,5.6-5.6v-7C412.3,247.5,409.8,245,406.7,245z"/>
	
		<linearGradient id="XMLID_99_" gradientUnits="userSpaceOnUse" x1="6.2843" y1="6.8416" x2="6.8165" y2="6.8416" gradientTransform="matrix(0 31 -31 0 597.6 43)">
		<stop  offset="0" style="stop-color:#999999"/>
		<stop  offset="0.3956" style="stop-color:#CCCCCC"/>
		<stop  offset="1" style="stop-color:#666666"/>
	</linearGradient>
	<path id="XMLID_44_" class="st28" d="M387.5,245.2v-6.9c0-1.9,1-3.5,2.3-4.5c-0.9-0.6-2-1-3.2-1c-3,0-5.5,2.4-5.5,5.5v7
		c0,3,2.5,5.5,5.5,5.5c1.2,0,2.3-0.4,3.2-1C388.5,248.7,387.5,247.1,387.5,245.2z"/>
	
		<linearGradient id="XMLID_100_" gradientUnits="userSpaceOnUse" x1="6.2843" y1="6.7873" x2="6.8165" y2="6.7873" gradientTransform="matrix(0 31 -31 0 594 43)">
		<stop  offset="0" style="stop-color:#999999"/>
		<stop  offset="0.3956" style="stop-color:#CCCCCC"/>
		<stop  offset="1" style="stop-color:#666666"/>
	</linearGradient>
	<path id="XMLID_45_" class="st29" d="M385.6,257.6v-2.9h-6.3v2.9c0,3,2.4,5.5,5.5,5.5c1.2,0,2.3-0.4,3.2-1
		C386.5,261.1,385.6,259.4,385.6,257.6z"/>
	
		<linearGradient id="XMLID_101_" gradientUnits="userSpaceOnUse" x1="1.5196" y1="4.5135" x2="2.0517" y2="4.5135" gradientTransform="matrix(0 31.0001 -31.0001 0 547.9935 358.7065)">
		<stop  offset="0" style="stop-color:#999999"/>
		<stop  offset="0.3956" style="stop-color:#CCCCCC"/>
		<stop  offset="1" style="stop-color:#666666"/>
	</linearGradient>
	<path id="XMLID_46_" class="st30" d="M406,238.5v3h6.6v-3c0-3.2-2.6-5.7-5.7-5.7c-1.2,0-2.3,0.4-3.3,1.1
		C405,234.8,406,236.5,406,238.5z"/>
</g>
</svg>
